<?xml version="1.0" encoding="UTF-8" standalone="no"?>
<!-- Created with Inkscape (http://www.inkscape.org/) -->

<svg
   xmlns:dc="http://purl.org/dc/elements/1.1/"
   xmlns:cc="http://creativecommons.org/ns#"
   xmlns:rdf="http://www.w3.org/1999/02/22-rdf-syntax-ns#"
   xmlns:svg="http://www.w3.org/2000/svg"
   xmlns="http://www.w3.org/2000/svg"
   xmlns:sodipodi="http://sodipodi.sourceforge.net/DTD/sodipodi-0.dtd"
   xmlns:inkscape="http://www.inkscape.org/namespaces/inkscape"
   version="1.1"
   id="svg2"
   xml:space="preserve"
   width="742.66669"
   height="314.66666"
   viewBox="0 0 742.66669 314.66666"
   sodipodi:docname="mosfetvisimp.svg"
   inkscape:version="0.92.5 (2060ec1f9f, 2020-04-08)"><metadata
     id="metadata8"><rdf:RDF><cc:Work
         rdf:about=""><dc:format>image/svg+xml</dc:format><dc:type
           rdf:resource="http://purl.org/dc/dcmitype/StillImage" /><dc:title></dc:title></cc:Work></rdf:RDF></metadata><defs
     id="defs6" /><sodipodi:namedview
     pagecolor="#ffffff"
     bordercolor="#666666"
     borderopacity="1"
     objecttolerance="10"
     gridtolerance="10"
     guidetolerance="10"
     inkscape:pageopacity="0"
     inkscape:pageshadow="2"
     inkscape:window-width="778"
     inkscape:window-height="480"
     id="namedview4"
     showgrid="false"
     inkscape:zoom="0.46723518"
     inkscape:cx="371.33334"
     inkscape:cy="157.33333"
     inkscape:window-x="52"
     inkscape:window-y="27"
     inkscape:window-maximized="0"
     inkscape:current-layer="g10" /><g
     id="g10"
     inkscape:groupmode="layer"
     inkscape:label="mosfetvisimp"
     transform="matrix(1.3333333,0,0,-1.3333333,0,314.66667)"><g
       id="g12"
       transform="scale(0.1)"><path
         d="M 850,1540 V 1420 H 730"
         style="fill:none;stroke:#000000;stroke-width:9.75;stroke-linecap:round;stroke-linejoin:bevel;stroke-miterlimit:6;stroke-dasharray:none;stroke-opacity:1"
         id="path14"
         inkscape:connector-curvature="0" /><path
         d="M 730,1300 H 850 V 1180 H 730 v 240"
         style="fill:none;stroke:#000000;stroke-width:9.75;stroke-linecap:round;stroke-linejoin:bevel;stroke-miterlimit:6;stroke-dasharray:none;stroke-opacity:1"
         id="path16"
         inkscape:connector-curvature="0" /><path
         d="m 790,1270 -60,30 60,30"
         style="fill:#000000;fill-opacity:1;fill-rule:evenodd;stroke:none"
         id="path18"
         inkscape:connector-curvature="0" /><path
         d="m 790,1270 -60,30 60,30 z"
         style="fill:none;stroke:#000000;stroke-width:9.75;stroke-linecap:round;stroke-linejoin:bevel;stroke-miterlimit:6;stroke-dasharray:none;stroke-opacity:1"
         id="path20"
         inkscape:connector-curvature="0" /><path
         d="m 850,1060 v 120"
         style="fill:none;stroke:#000000;stroke-width:9.75;stroke-linecap:round;stroke-linejoin:bevel;stroke-miterlimit:6;stroke-dasharray:none;stroke-opacity:1"
         id="path22"
         inkscape:connector-curvature="0" /><path
         d="m 670,1360 v 30"
         style="fill:none;stroke:#000000;stroke-width:9.75;stroke-linecap:round;stroke-linejoin:bevel;stroke-miterlimit:6;stroke-dasharray:none;stroke-opacity:1"
         id="path24"
         inkscape:connector-curvature="0" /><path
         d="m 670,1300 v 30"
         style="fill:none;stroke:#000000;stroke-width:9.75;stroke-linecap:round;stroke-linejoin:bevel;stroke-miterlimit:6;stroke-dasharray:none;stroke-opacity:1"
         id="path26"
         inkscape:connector-curvature="0" /><path
         d="m 670,1270 v 30"
         style="fill:none;stroke:#000000;stroke-width:9.75;stroke-linecap:round;stroke-linejoin:bevel;stroke-miterlimit:6;stroke-dasharray:none;stroke-opacity:1"
         id="path28"
         inkscape:connector-curvature="0" /><path
         d="m 670,1210 v 30"
         style="fill:none;stroke:#000000;stroke-width:9.75;stroke-linecap:round;stroke-linejoin:bevel;stroke-miterlimit:6;stroke-dasharray:none;stroke-opacity:1"
         id="path30"
         inkscape:connector-curvature="0" /><path
         d="M 430,1300 H 670"
         style="fill:none;stroke:#000000;stroke-width:9.75;stroke-linecap:round;stroke-linejoin:bevel;stroke-miterlimit:6;stroke-dasharray:none;stroke-opacity:1"
         id="path32"
         inkscape:connector-curvature="0" /><path
         d="m 1157.5,1240 -67.5,120 -67.5,-120"
         style="fill:#000000;fill-opacity:1;fill-rule:evenodd;stroke:none"
         id="path34"
         inkscape:connector-curvature="0" /><path
         d="M 1090,1240 V 1120"
         style="fill:none;stroke:#000000;stroke-width:9.75;stroke-linecap:round;stroke-linejoin:bevel;stroke-miterlimit:6;stroke-dasharray:none;stroke-opacity:1"
         id="path36"
         inkscape:connector-curvature="0" /><path
         d="m 1090,1360 v 120"
         style="fill:none;stroke:#000000;stroke-width:9.75;stroke-linecap:round;stroke-linejoin:bevel;stroke-miterlimit:6;stroke-dasharray:none;stroke-opacity:1"
         id="path38"
         inkscape:connector-curvature="0" /><path
         d="m 1157.5,1360 h -135"
         style="fill:none;stroke:#000000;stroke-width:9.75;stroke-linecap:round;stroke-linejoin:bevel;stroke-miterlimit:6;stroke-dasharray:none;stroke-opacity:1"
         id="path40"
         inkscape:connector-curvature="0" /><path
         d="m 850,1540 h 240 v -60"
         style="fill:none;stroke:#000000;stroke-width:9.75;stroke-linecap:round;stroke-linejoin:bevel;stroke-miterlimit:6;stroke-dasharray:none;stroke-opacity:1"
         id="path42"
         inkscape:connector-curvature="0" /><path
         d="m 850,1060 h 240 v 60"
         style="fill:none;stroke:#000000;stroke-width:9.75;stroke-linecap:round;stroke-linejoin:bevel;stroke-miterlimit:6;stroke-dasharray:none;stroke-opacity:1"
         id="path44"
         inkscape:connector-curvature="0" /><path
         d="m 970,1540 v 240"
         style="fill:none;stroke:#000000;stroke-width:9.75;stroke-linecap:round;stroke-linejoin:bevel;stroke-miterlimit:6;stroke-dasharray:none;stroke-opacity:1"
         id="path46"
         inkscape:connector-curvature="0" /><path
         d="m 970,820 v 240"
         style="fill:none;stroke:#000000;stroke-width:9.75;stroke-linecap:round;stroke-linejoin:bevel;stroke-miterlimit:6;stroke-dasharray:none;stroke-opacity:1"
         id="path48"
         inkscape:connector-curvature="0" /><path
         d="m 992.5,1060 c 0,12.43 -10.074,22.5 -22.5,22.5 -12.426,0 -22.5,-10.07 -22.5,-22.5 0,-12.43 10.074,-22.5 22.5,-22.5 12.426,0 22.5,10.07 22.5,22.5"
         style="fill:#000000;fill-opacity:1;fill-rule:evenodd;stroke:none"
         id="path50"
         inkscape:connector-curvature="0" /><path
         d="m 992.5,1540 c 0,12.43 -10.074,22.5 -22.5,22.5 -12.426,0 -22.5,-10.07 -22.5,-22.5 0,-12.43 10.074,-22.5 22.5,-22.5 12.426,0 22.5,10.07 22.5,22.5"
         style="fill:#000000;fill-opacity:1;fill-rule:evenodd;stroke:none"
         id="path52"
         inkscape:connector-curvature="0" /><path
         d="m 347.5,1300 c 0,12.43 10.074,22.5 22.5,22.5 12.426,0 22.5,-10.07 22.5,-22.5 0,-12.43 -10.074,-22.5 -22.5,-22.5 -12.426,0 -22.5,10.07 -22.5,22.5"
         style="fill:none;stroke:#000000;stroke-width:9.75;stroke-linecap:round;stroke-linejoin:bevel;stroke-miterlimit:6;stroke-dasharray:none;stroke-opacity:1"
         id="path54"
         inkscape:connector-curvature="0" /><path
         d="M 392.5,1300 H 430"
         style="fill:none;stroke:#000000;stroke-width:9.75;stroke-linecap:round;stroke-linejoin:bevel;stroke-miterlimit:6;stroke-dasharray:none;stroke-opacity:1"
         id="path56"
         inkscape:connector-curvature="0" /><path
         d="m 970,1862.5 c 12.426,0 22.5,-10.07 22.5,-22.5 0,-12.43 -10.074,-22.5 -22.5,-22.5 -12.426,0 -22.5,10.07 -22.5,22.5 0,12.43 10.074,22.5 22.5,22.5"
         style="fill:none;stroke:#000000;stroke-width:9.75;stroke-linecap:round;stroke-linejoin:bevel;stroke-miterlimit:6;stroke-dasharray:none;stroke-opacity:1"
         id="path58"
         inkscape:connector-curvature="0" /><path
         d="M 970,1817.5 V 1780"
         style="fill:none;stroke:#000000;stroke-width:9.75;stroke-linecap:round;stroke-linejoin:bevel;stroke-miterlimit:6;stroke-dasharray:none;stroke-opacity:1"
         id="path60"
         inkscape:connector-curvature="0" /><path
         d="m 970,737.5 c -12.426,0 -22.5,10.074 -22.5,22.5 0,12.426 10.074,22.5 22.5,22.5 12.426,0 22.5,-10.074 22.5,-22.5 0,-12.426 -10.074,-22.5 -22.5,-22.5"
         style="fill:none;stroke:#000000;stroke-width:9.75;stroke-linecap:round;stroke-linejoin:bevel;stroke-miterlimit:6;stroke-dasharray:none;stroke-opacity:1"
         id="path62"
         inkscape:connector-curvature="0" /><path
         d="M 970,782.5 V 820"
         style="fill:none;stroke:#000000;stroke-width:9.75;stroke-linecap:round;stroke-linejoin:bevel;stroke-miterlimit:6;stroke-dasharray:none;stroke-opacity:1"
         id="path64"
         inkscape:connector-curvature="0" /><path
         d="m 880,1705 c 18.75,-37.5 18.75,-48.75 30,-105 11.25,56.25 11.25,67.5 30,105 -22.5,-7.5 -37.5,-7.5 -60,0"
         style="fill:#ff0000;fill-opacity:1;fill-rule:evenodd;stroke:none"
         id="path66"
         inkscape:connector-curvature="0" /><path
         d="m 910,1690 v 150"
         style="fill:none;stroke:#ff0000;stroke-width:9.75;stroke-linecap:round;stroke-linejoin:bevel;stroke-miterlimit:6;stroke-dasharray:none;stroke-opacity:1"
         id="path68"
         inkscape:connector-curvature="0" /><g
         id="g70"
         transform="scale(10)"><text
           transform="matrix(1,0,0,-1,72.2656,178)"
           style="font-style:italic;font-variant:normal;font-size:15px;font-family:Times;-inkscape-font-specification:Times-Italic;writing-mode:lr-tb;fill:#ff0000;fill-opacity:1;fill-rule:nonzero;stroke:none"
           id="text74"><tspan
             x="0"
             y="0"
             id="tspan72">i</tspan></text>
<text
           transform="matrix(1,0,0,-1,76.43552,174.68359)"
           style="font-style:italic;font-variant:normal;font-size:10.05000019px;font-family:Times;-inkscape-font-specification:Times-Italic;writing-mode:lr-tb;fill:#ff0000;fill-opacity:1;fill-rule:nonzero;stroke:none"
           id="text78"><tspan
             x="0"
             y="0"
             id="tspan76">D</tspan></text>
</g><g
         id="g80"
         transform="scale(10)"><text
           transform="matrix(1,0,0,-1,78.5953,193)"
           style="font-variant:normal;font-weight:normal;font-size:15px;font-family:Times;-inkscape-font-specification:Times-Roman;writing-mode:lr-tb;fill:#000000;fill-opacity:1;fill-rule:nonzero;stroke:none"
           id="text88"><tspan
             x="0 7.5 12.495 19.155001 23.325001"
             y="0"
             sodipodi:role="line"
             id="tspan82">drain</tspan><tspan
             x="-3.35938 2.47562 9.9756203 17.47562 22.470619 29.130619"
             y="135"
             sodipodi:role="line"
             id="tspan84">source</tspan><tspan
             x="-75.014076 -67.514076 -60.85408 -56.684078"
             y="66"
             sodipodi:role="line"
             id="tspan86">gate</tspan></text>
</g><g
         id="g90"
         transform="scale(10)"><text
           transform="matrix(1,0,0,-1,51.6859,103)"
           style="font-style:italic;font-variant:normal;font-size:15px;font-family:Times;-inkscape-font-specification:Times-Italic;writing-mode:lr-tb;fill:#a020f0;fill-opacity:1;fill-rule:nonzero;stroke:none"
           id="text94"><tspan
             x="0"
             y="0"
             id="tspan92">v</tspan></text>
<text
           transform="matrix(1,0,0,-1,58.34606,99.68359)"
           style="font-style:italic;font-variant:normal;font-size:10.05000019px;font-family:Times;-inkscape-font-specification:Times-Italic;writing-mode:lr-tb;fill:#a020f0;fill-opacity:1;fill-rule:nonzero;stroke:none"
           id="text98"><tspan
             x="0 5.0250001"
             y="0"
             sodipodi:role="line"
             id="tspan96">gs</tspan></text>
<text
           transform="matrix(1,0,0,-1,42.54996,111.99999)"
           style="font-variant:normal;font-weight:normal;font-size:15px;font-family:Times;-inkscape-font-specification:Times-Roman;writing-mode:lr-tb;fill:#a020f0;fill-opacity:1;fill-rule:nonzero;stroke:none"
           id="text104"><tspan
             x="0"
             y="0"
             id="tspan100">+</tspan><tspan
             x="29.865601"
             y="27"
             id="tspan102">-</tspan></text>
</g><g
         id="g106"
         transform="scale(10)"><text
           transform="matrix(1,0,0,-1,117.686,127)"
           style="font-style:italic;font-variant:normal;font-size:15px;font-family:Times;-inkscape-font-specification:Times-Italic;writing-mode:lr-tb;fill:#2e8b57;fill-opacity:1;fill-rule:nonzero;stroke:none"
           id="text110"><tspan
             x="0"
             y="0"
             id="tspan108">v</tspan></text>
<text
           transform="matrix(1,0,0,-1,124.34616,123.68359)"
           style="font-style:italic;font-variant:normal;font-size:10.05000019px;font-family:Times;-inkscape-font-specification:Times-Italic;writing-mode:lr-tb;fill:#2e8b57;fill-opacity:1;fill-rule:nonzero;stroke:none"
           id="text114"><tspan
             x="0 5.0250001"
             y="0"
             sodipodi:role="line"
             id="tspan112">ds</tspan></text>
<text
           transform="matrix(1,0,0,-1,123.55007,138.99999)"
           style="font-variant:normal;font-weight:normal;font-size:15px;font-family:Times;-inkscape-font-specification:Times-Roman;writing-mode:lr-tb;fill:#2e8b57;fill-opacity:1;fill-rule:nonzero;stroke:none"
           id="text120"><tspan
             x="0"
             y="0"
             id="tspan116">+</tspan><tspan
             x="2.8656299"
             y="27"
             id="tspan118">-</tspan></text>
</g><path
         d="M 2402.5,1041.25 2290,760"
         style="fill:none;stroke:#000000;stroke-width:12.67500019;stroke-linecap:round;stroke-linejoin:bevel;stroke-miterlimit:6;stroke-dasharray:none;stroke-opacity:1"
         id="path122"
         inkscape:connector-curvature="0" /><path
         d="m 2269.77,898.68 c 38.89,-33.809 88.69,-52.43 140.23,-52.43"
         style="fill:none;stroke:#000000;stroke-width:5.8499999;stroke-linecap:round;stroke-linejoin:bevel;stroke-miterlimit:6;stroke-dasharray:none;stroke-opacity:1"
         id="path124"
         inkscape:connector-curvature="0" /><path
         d="m 2410,1037.5 c -12.43,0 -22.5,10.07 -22.5,22.5 0,12.43 10.07,22.5 22.5,22.5 12.43,0 22.5,-10.07 22.5,-22.5 0,-12.43 -10.07,-22.5 -22.5,-22.5"
         style="fill:none;stroke:#000000;stroke-width:9.75;stroke-linecap:round;stroke-linejoin:bevel;stroke-miterlimit:6;stroke-dasharray:none;stroke-opacity:1"
         id="path126"
         inkscape:connector-curvature="0" /><path
         d="M 2410,1082.5 V 1120"
         style="fill:none;stroke:#000000;stroke-width:9.75;stroke-linecap:round;stroke-linejoin:bevel;stroke-miterlimit:6;stroke-dasharray:none;stroke-opacity:1"
         id="path128"
         inkscape:connector-curvature="0" /><path
         d="m 2392,832 c 22.5,11.25 29.25,11.25 63,18 -33.75,6.75 -40.5,6.75 -63,18 4.5,-13.5 4.5,-22.5 0,-36"
         style="fill:#000000;fill-opacity:1;fill-rule:evenodd;stroke:none"
         id="path130"
         inkscape:connector-curvature="0" /><path
         d="m 2410,782.5 c -12.43,0 -22.5,-10.074 -22.5,-22.5 0,-12.426 10.07,-22.5 22.5,-22.5 12.43,0 22.5,10.074 22.5,22.5 0,12.426 -10.07,22.5 -22.5,22.5"
         style="fill:none;stroke:#000000;stroke-width:9.75;stroke-linecap:round;stroke-linejoin:bevel;stroke-miterlimit:6;stroke-dasharray:none;stroke-opacity:1"
         id="path132"
         inkscape:connector-curvature="0" /><path
         d="M 2410,737.5 V 700"
         style="fill:none;stroke:#000000;stroke-width:9.75;stroke-linecap:round;stroke-linejoin:bevel;stroke-miterlimit:6;stroke-dasharray:none;stroke-opacity:1"
         id="path134"
         inkscape:connector-curvature="0" /><path
         d="m 2410,1615 v 105"
         style="fill:none;stroke:#000000;stroke-width:9.75;stroke-linecap:round;stroke-linejoin:bevel;stroke-miterlimit:6;stroke-dasharray:none;stroke-opacity:1"
         id="path136"
         inkscape:connector-curvature="0" /><path
         d="M 2410,1345 V 1240"
         style="fill:none;stroke:#000000;stroke-width:9.75;stroke-linecap:round;stroke-linejoin:bevel;stroke-miterlimit:6;stroke-dasharray:none;stroke-opacity:1"
         id="path138"
         inkscape:connector-curvature="0" /><path
         d="m 2410,1615 -52.5,-22.5 105,-45 -105,-45 105,-45 -105,-45 105,-45 -52.5,-22.5"
         style="fill:none;stroke:#000000;stroke-width:9.75;stroke-linecap:round;stroke-linejoin:bevel;stroke-miterlimit:6;stroke-dasharray:none;stroke-opacity:1"
         id="path140"
         inkscape:connector-curvature="0" /><path
         d="m 2890,1255 v 105"
         style="fill:none;stroke:#000000;stroke-width:9.75;stroke-linecap:round;stroke-linejoin:bevel;stroke-miterlimit:6;stroke-dasharray:none;stroke-opacity:1"
         id="path142"
         inkscape:connector-curvature="0" /><path
         d="M 2890,985 V 880"
         style="fill:none;stroke:#000000;stroke-width:9.75;stroke-linecap:round;stroke-linejoin:bevel;stroke-miterlimit:6;stroke-dasharray:none;stroke-opacity:1"
         id="path144"
         inkscape:connector-curvature="0" /><path
         d="m 2890,1255 -52.5,-22.5 105,-45 -105,-45 105,-45 -105,-45 105,-45 L 2890,985"
         style="fill:none;stroke:#000000;stroke-width:9.75;stroke-linecap:round;stroke-linejoin:bevel;stroke-miterlimit:6;stroke-dasharray:none;stroke-opacity:1"
         id="path146"
         inkscape:connector-curvature="0" /><path
         d="M 2957.5,640 2890,760 2822.5,640"
         style="fill:#000000;fill-opacity:1;fill-rule:evenodd;stroke:none"
         id="path148"
         inkscape:connector-curvature="0" /><path
         d="M 2890,640 V 520"
         style="fill:none;stroke:#000000;stroke-width:9.75;stroke-linecap:round;stroke-linejoin:bevel;stroke-miterlimit:6;stroke-dasharray:none;stroke-opacity:1"
         id="path150"
         inkscape:connector-curvature="0" /><path
         d="M 2890,760 V 880"
         style="fill:none;stroke:#000000;stroke-width:9.75;stroke-linecap:round;stroke-linejoin:bevel;stroke-miterlimit:6;stroke-dasharray:none;stroke-opacity:1"
         id="path152"
         inkscape:connector-curvature="0" /><path
         d="m 2957.5,760 h -135"
         style="fill:none;stroke:#000000;stroke-width:9.75;stroke-linecap:round;stroke-linejoin:bevel;stroke-miterlimit:6;stroke-dasharray:none;stroke-opacity:1"
         id="path154"
         inkscape:connector-curvature="0" /><path
         d="m 2770,1600 c 0,-66.27 53.73,-120 120,-120 66.27,0 120,53.73 120,120 0,66.27 -53.73,120 -120,120 -66.27,0 -120,-53.73 -120,-120"
         style="fill:none;stroke:#000000;stroke-width:9.75;stroke-linecap:round;stroke-linejoin:bevel;stroke-miterlimit:6;stroke-dasharray:none;stroke-opacity:1"
         id="path156"
         inkscape:connector-curvature="0" /><path
         d="m 2890,1360 v 120"
         style="fill:none;stroke:#000000;stroke-width:9.75;stroke-linecap:round;stroke-linejoin:bevel;stroke-miterlimit:6;stroke-dasharray:none;stroke-opacity:1"
         id="path158"
         inkscape:connector-curvature="0" /><path
         d="M 2890,1840 V 1720"
         style="fill:none;stroke:#000000;stroke-width:9.75;stroke-linecap:round;stroke-linejoin:bevel;stroke-miterlimit:6;stroke-dasharray:none;stroke-opacity:1"
         id="path160"
         inkscape:connector-curvature="0" /><g
         id="g162"
         transform="scale(10)"><text
           transform="matrix(-1,0,0,1,292.961,157.241)"
           style="font-variant:normal;font-weight:normal;font-size:15px;font-family:Symbol;-inkscape-font-specification:Symbol;writing-mode:lr-tb;fill:#000000;fill-opacity:1;fill-rule:nonzero;stroke:none"
           id="text168"><tspan
             x="0"
             y="0"
             id="tspan164">+</tspan><tspan
             x="0.036718801"
             y="11.7102"
             id="tspan166">−</tspan></text>
</g><path
         d="m 2410,1090 v 150"
         style="fill:none;stroke:#000000;stroke-width:9.75;stroke-linecap:round;stroke-linejoin:bevel;stroke-miterlimit:6;stroke-dasharray:none;stroke-opacity:1"
         id="path170"
         inkscape:connector-curvature="0" /><path
         d="M 2890,520 H 2410 V 700"
         style="fill:none;stroke:#000000;stroke-width:9.75;stroke-linecap:round;stroke-linejoin:bevel;stroke-miterlimit:6;stroke-dasharray:none;stroke-opacity:1"
         id="path172"
         inkscape:connector-curvature="0" /><path
         d="M 2890,1840 H 2410 V 1720"
         style="fill:none;stroke:#000000;stroke-width:9.75;stroke-linecap:round;stroke-linejoin:bevel;stroke-miterlimit:6;stroke-dasharray:none;stroke-opacity:1"
         id="path174"
         inkscape:connector-curvature="0" /><path
         d="m 2650,1840 v 240"
         style="fill:none;stroke:#000000;stroke-width:9.75;stroke-linecap:round;stroke-linejoin:bevel;stroke-miterlimit:6;stroke-dasharray:none;stroke-opacity:1"
         id="path176"
         inkscape:connector-curvature="0" /><path
         d="m 2650,2162.5 c 12.43,0 22.5,-10.07 22.5,-22.5 0,-12.43 -10.07,-22.5 -22.5,-22.5 -12.43,0 -22.5,10.07 -22.5,22.5 0,12.43 10.07,22.5 22.5,22.5"
         style="fill:none;stroke:#000000;stroke-width:9.75;stroke-linecap:round;stroke-linejoin:bevel;stroke-miterlimit:6;stroke-dasharray:none;stroke-opacity:1"
         id="path178"
         inkscape:connector-curvature="0" /><path
         d="M 2650,2117.5 V 2080"
         style="fill:none;stroke:#000000;stroke-width:9.75;stroke-linecap:round;stroke-linejoin:bevel;stroke-miterlimit:6;stroke-dasharray:none;stroke-opacity:1"
         id="path180"
         inkscape:connector-curvature="0" /><path
         d="m 2560,2005 c 18.75,-37.5 18.75,-48.75 30,-105 11.25,56.25 11.25,67.5 30,105 -22.5,-7.5 -37.5,-7.5 -60,0"
         style="fill:#ff0000;fill-opacity:1;fill-rule:evenodd;stroke:none"
         id="path182"
         inkscape:connector-curvature="0" /><path
         d="m 2590,1990 v 150"
         style="fill:none;stroke:#ff0000;stroke-width:9.75;stroke-linecap:round;stroke-linejoin:bevel;stroke-miterlimit:6;stroke-dasharray:none;stroke-opacity:1"
         id="path184"
         inkscape:connector-curvature="0" /><g
         id="g186"
         transform="scale(10)"><text
           transform="matrix(1,0,0,-1,240.266,208)"
           style="font-style:italic;font-variant:normal;font-size:15px;font-family:Times;-inkscape-font-specification:Times-Italic;writing-mode:lr-tb;fill:#ff0000;fill-opacity:1;fill-rule:nonzero;stroke:none"
           id="text190"><tspan
             x="0"
             y="0"
             id="tspan188">i</tspan></text>
<text
           transform="matrix(1,0,0,-1,244.43592,204.68359)"
           style="font-style:italic;font-variant:normal;font-size:10.05000019px;font-family:Times;-inkscape-font-specification:Times-Italic;writing-mode:lr-tb;fill:#ff0000;fill-opacity:1;fill-rule:nonzero;stroke:none"
           id="text194"><tspan
             x="0"
             y="0"
             id="tspan192">D</tspan></text>
</g><g
         id="g196"
         transform="scale(10)"><text
           transform="matrix(1,0,0,-1,246.595,223)"
           style="font-variant:normal;font-weight:normal;font-size:15px;font-family:Times;-inkscape-font-specification:Times-Roman;writing-mode:lr-tb;fill:#000000;fill-opacity:1;fill-rule:nonzero;stroke:none"
           id="text200"><tspan
             x="0 7.5 12.495 19.155001 23.325001"
             y="0"
             sodipodi:role="line"
             id="tspan198">drain</tspan></text>
</g><path
         d="m 2672.5,1840 c 0,12.43 -10.07,22.5 -22.5,22.5 -12.43,0 -22.5,-10.07 -22.5,-22.5 0,-12.43 10.07,-22.5 22.5,-22.5 12.43,0 22.5,10.07 22.5,22.5"
         style="fill:#000000;fill-opacity:1;fill-rule:evenodd;stroke:none"
         id="path202"
         inkscape:connector-curvature="0" /><path
         d="m 1750,880 h 420"
         style="fill:none;stroke:#000000;stroke-width:9.75;stroke-linecap:round;stroke-linejoin:bevel;stroke-miterlimit:6;stroke-dasharray:none;stroke-opacity:1"
         id="path204"
         inkscape:connector-curvature="0" /><path
         d="m 1667.5,880 c 0,12.426 10.07,22.5 22.5,22.5 12.43,0 22.5,-10.074 22.5,-22.5 0,-12.426 -10.07,-22.5 -22.5,-22.5 -12.43,0 -22.5,10.074 -22.5,22.5"
         style="fill:none;stroke:#000000;stroke-width:9.75;stroke-linecap:round;stroke-linejoin:bevel;stroke-miterlimit:6;stroke-dasharray:none;stroke-opacity:1"
         id="path206"
         inkscape:connector-curvature="0" /><path
         d="M 1712.5,880 H 1750"
         style="fill:none;stroke:#000000;stroke-width:9.75;stroke-linecap:round;stroke-linejoin:bevel;stroke-miterlimit:6;stroke-dasharray:none;stroke-opacity:1"
         id="path208"
         inkscape:connector-curvature="0" /><g
         id="g210"
         transform="scale(10)"><text
           transform="matrix(1,0,0,-1,135.581,85)"
           style="font-variant:normal;font-weight:normal;font-size:15px;font-family:Times;-inkscape-font-specification:Times-Roman;writing-mode:lr-tb;fill:#000000;fill-opacity:1;fill-rule:nonzero;stroke:none"
           id="text214"><tspan
             x="0 7.5 14.16 18.33"
             y="0"
             sodipodi:role="line"
             id="tspan212">gate</tspan></text>
</g><g
         id="g216"
         transform="scale(10)"><text
           transform="matrix(1,0,0,-1,201.686,61)"
           style="font-style:italic;font-variant:normal;font-size:15px;font-family:Times;-inkscape-font-specification:Times-Italic;writing-mode:lr-tb;fill:#a020f0;fill-opacity:1;fill-rule:nonzero;stroke:none"
           id="text220"><tspan
             x="0"
             y="0"
             id="tspan218">v</tspan></text>
<text
           transform="matrix(1,0,0,-1,208.34616,57.68359)"
           style="font-style:italic;font-variant:normal;font-size:10.05000019px;font-family:Times;-inkscape-font-specification:Times-Italic;writing-mode:lr-tb;fill:#a020f0;fill-opacity:1;fill-rule:nonzero;stroke:none"
           id="text224"><tspan
             x="0 5.0250001"
             y="0"
             sodipodi:role="line"
             id="tspan222">gs</tspan></text>
<text
           transform="matrix(1,0,0,-1,192.55006,69.99999)"
           style="font-variant:normal;font-weight:normal;font-size:15px;font-family:Times;-inkscape-font-specification:Times-Roman;writing-mode:lr-tb;fill:#a020f0;fill-opacity:1;fill-rule:nonzero;stroke:none"
           id="text230"><tspan
             x="0"
             y="0"
             id="tspan226">+</tspan><tspan
             x="29.865601"
             y="27"
             id="tspan228">-</tspan></text>
</g><g
         id="g232"
         transform="scale(10)"><text
           transform="matrix(1,0,0,-1,243.236,4)"
           style="font-variant:normal;font-weight:normal;font-size:15px;font-family:Times;-inkscape-font-specification:Times-Roman;writing-mode:lr-tb;fill:#000000;fill-opacity:1;fill-rule:nonzero;stroke:none"
           id="text236"><tspan
             x="0 5.835 13.335 20.834999 25.83 32.490002"
             y="0"
             sodipodi:role="line"
             id="tspan234">source</tspan></text>
</g><path
         d="M 2650,280 V 520"
         style="fill:none;stroke:#000000;stroke-width:9.75;stroke-linecap:round;stroke-linejoin:bevel;stroke-miterlimit:6;stroke-dasharray:none;stroke-opacity:1"
         id="path238"
         inkscape:connector-curvature="0" /><path
         d="m 2650,197.5 c -12.43,0 -22.5,10.074 -22.5,22.5 0,12.426 10.07,22.5 22.5,22.5 12.43,0 22.5,-10.074 22.5,-22.5 0,-12.426 -10.07,-22.5 -22.5,-22.5"
         style="fill:none;stroke:#000000;stroke-width:9.75;stroke-linecap:round;stroke-linejoin:bevel;stroke-miterlimit:6;stroke-dasharray:none;stroke-opacity:1"
         id="path240"
         inkscape:connector-curvature="0" /><path
         d="M 2650,242.5 V 280"
         style="fill:none;stroke:#000000;stroke-width:9.75;stroke-linecap:round;stroke-linejoin:bevel;stroke-miterlimit:6;stroke-dasharray:none;stroke-opacity:1"
         id="path242"
         inkscape:connector-curvature="0" /><path
         d="m 2672.5,520 c 0,12.426 -10.07,22.5 -22.5,22.5 -12.43,0 -22.5,-10.074 -22.5,-22.5 0,-12.426 10.07,-22.5 22.5,-22.5 12.43,0 22.5,10.074 22.5,22.5"
         style="fill:#000000;fill-opacity:1;fill-rule:evenodd;stroke:none"
         id="path244"
         inkscape:connector-curvature="0" /><path
         d="M 4510,310 V 2020"
         style="fill:none;stroke:#cccccc;stroke-width:9.75;stroke-linecap:round;stroke-linejoin:bevel;stroke-miterlimit:6;stroke-dasharray:none;stroke-opacity:1"
         id="path246"
         inkscape:connector-curvature="0" /><path
         d="M 5470,1060 H 3970"
         style="fill:none;stroke:#cccccc;stroke-width:9.75;stroke-linecap:round;stroke-linejoin:bevel;stroke-miterlimit:6;stroke-dasharray:none;stroke-opacity:1"
         id="path248"
         inkscape:connector-curvature="0" /><path
         d="m 4360,190 60,870 h 90"
         style="fill:none;stroke:#ff0000;stroke-width:29.25;stroke-linecap:round;stroke-linejoin:bevel;stroke-miterlimit:6;stroke-dasharray:none;stroke-opacity:1"
         id="path250"
         inkscape:connector-curvature="0" /><g
         id="g252"
         transform="scale(10)"><text
           transform="matrix(1,0,0,-1,393.761,118)"
           style="font-variant:normal;font-weight:normal;font-size:15px;font-family:Times;-inkscape-font-specification:Times-Roman;writing-mode:lr-tb;fill:#000000;fill-opacity:1;fill-rule:nonzero;stroke:none"
           id="text256"><tspan
             x="0"
             y="0"
             id="tspan254">V</tspan></text>
<text
           transform="matrix(1,0,0,-1,404.5911,114.68359)"
           style="font-variant:normal;font-weight:normal;font-size:10.05000019px;font-family:Times;-inkscape-font-specification:Times-Roman;writing-mode:lr-tb;fill:#000000;fill-opacity:1;fill-rule:nonzero;stroke:none"
           id="text260"><tspan
             x="0 5.0250001 7.5374999 13.1253 22.612499"
             y="0"
             sodipodi:role="line"
             id="tspan258">d,FWD</tspan></text>
<text
           transform="matrix(1,0,0,-1,380.3376,48.99999)"
           style="font-variant:normal;font-weight:normal;font-size:15px;font-family:Times;-inkscape-font-specification:Times-Roman;writing-mode:lr-tb;fill:#000000;fill-opacity:1;fill-rule:nonzero;stroke:none"
           id="text264"><tspan
             x="0 7.5 11.67"
             y="0"
             sodipodi:role="line"
             id="tspan262">1/R</tspan></text>
<text
           transform="matrix(1,0,0,-1,402.0126,45.68358)"
           style="font-variant:normal;font-weight:normal;font-size:10.05000019px;font-family:Times;-inkscape-font-specification:Times-Roman;writing-mode:lr-tb;fill:#000000;fill-opacity:1;fill-rule:nonzero;stroke:none"
           id="text268"><tspan
             x="0 5.0250001 7.5374999 14.7936"
             y="0"
             sodipodi:role="line"
             id="tspan266">d,ON</tspan></text>
<text
           transform="matrix(1,0,0,-1,477.236,150.99958)"
           style="font-variant:normal;font-weight:normal;font-size:15px;font-family:Times;-inkscape-font-specification:Times-Roman;writing-mode:lr-tb;fill:#000000;fill-opacity:1;fill-rule:nonzero;stroke:none"
           id="text272"><tspan
             x="0 5.835 10.005 17.504999 25.004999 31.665001"
             y="0"
             sodipodi:role="line"
             id="tspan270">slope:</tspan></text>
</g><g
         id="g274"
         transform="scale(10)"><text
           transform="matrix(1,0,0,-1,456.266,205)"
           style="font-style:italic;font-variant:normal;font-size:15px;font-family:Times;-inkscape-font-specification:Times-Italic;writing-mode:lr-tb;fill:#ff0000;fill-opacity:1;fill-rule:nonzero;stroke:none"
           id="text278"><tspan
             x="0"
             y="0"
             id="tspan276">i</tspan></text>
<text
           transform="matrix(1,0,0,-1,460.43592,201.68359)"
           style="font-style:italic;font-variant:normal;font-size:10.05000019px;font-family:Times;-inkscape-font-specification:Times-Italic;writing-mode:lr-tb;fill:#ff0000;fill-opacity:1;fill-rule:nonzero;stroke:none"
           id="text282"><tspan
             x="0"
             y="0"
             id="tspan280">D</tspan></text>
</g><g
         id="g284"
         transform="scale(10)"><text
           transform="matrix(1,0,0,-1,528.686,97)"
           style="font-style:italic;font-variant:normal;font-size:15px;font-family:Times;-inkscape-font-specification:Times-Italic;writing-mode:lr-tb;fill:#2e8b57;fill-opacity:1;fill-rule:nonzero;stroke:none"
           id="text288"><tspan
             x="0"
             y="0"
             id="tspan286">v</tspan></text>
<text
           transform="matrix(1,0,0,-1,535.34616,93.68359)"
           style="font-style:italic;font-variant:normal;font-size:10.05000019px;font-family:Times;-inkscape-font-specification:Times-Italic;writing-mode:lr-tb;fill:#2e8b57;fill-opacity:1;fill-rule:nonzero;stroke:none"
           id="text292"><tspan
             x="0 5.0250001"
             y="0"
             sodipodi:role="line"
             id="tspan290">ds</tspan></text>
</g><path
         d="m 5470,1030 60,30 -60,30"
         style="fill:#cccccc;fill-opacity:1;fill-rule:evenodd;stroke:none"
         id="path294"
         inkscape:connector-curvature="0" /><path
         d="m 5470,1030 60,30 -60,30 z"
         style="fill:none;stroke:#cccccc;stroke-width:9.75;stroke-linecap:round;stroke-linejoin:bevel;stroke-miterlimit:6;stroke-dasharray:none;stroke-opacity:1"
         id="path296"
         inkscape:connector-curvature="0" /><path
         d="m 4540,2020 -30,60 -30,-60"
         style="fill:#cccccc;fill-opacity:1;fill-rule:evenodd;stroke:none"
         id="path298"
         inkscape:connector-curvature="0" /><path
         d="m 4540,2020 -30,60 -30,-60 z"
         style="fill:none;stroke:#cccccc;stroke-width:9.75;stroke-linecap:round;stroke-linejoin:bevel;stroke-miterlimit:6;stroke-dasharray:none;stroke-opacity:1"
         id="path300"
         inkscape:connector-curvature="0" /><path
         d="m 4510,1060 240,870 v 0"
         style="fill:none;stroke:#ff0000;stroke-width:29.25;stroke-linecap:round;stroke-linejoin:bevel;stroke-miterlimit:6;stroke-dasharray:none;stroke-opacity:1"
         id="path302"
         inkscape:connector-curvature="0" /><g
         id="g304"
         transform="scale(10)"><text
           transform="matrix(1,0,0,-1,303.761,157)"
           style="font-variant:normal;font-weight:normal;font-size:15px;font-family:Times;-inkscape-font-specification:Times-Roman;writing-mode:lr-tb;fill:#000000;fill-opacity:1;fill-rule:nonzero;stroke:none"
           id="text308"><tspan
             x="0"
             y="0"
             id="tspan306">V</tspan></text>
<text
           transform="matrix(1,0,0,-1,314.5911,153.68359)"
           style="font-variant:normal;font-weight:normal;font-size:10.05000019px;font-family:Times;-inkscape-font-specification:Times-Roman;writing-mode:lr-tb;fill:#000000;fill-opacity:1;fill-rule:nonzero;stroke:none"
           id="text312"><tspan
             x="0 5.0250001 7.5374999 13.1253 22.612499"
             y="0"
             sodipodi:role="line"
             id="tspan310">d,FWD</tspan></text>
<text
           transform="matrix(1,0,0,-1,300.7454,108.99999)"
           style="font-variant:normal;font-weight:normal;font-size:15px;font-family:Times;-inkscape-font-specification:Times-Roman;writing-mode:lr-tb;fill:#000000;fill-opacity:1;fill-rule:nonzero;stroke:none"
           id="text316"><tspan
             x="0"
             y="0"
             id="tspan314">R</tspan></text>
<text
           transform="matrix(1,0,0,-1,310.7505,105.68358)"
           style="font-variant:normal;font-weight:normal;font-size:10.05000019px;font-family:Times;-inkscape-font-specification:Times-Roman;writing-mode:lr-tb;fill:#000000;fill-opacity:1;fill-rule:nonzero;stroke:none"
           id="text320"><tspan
             x="0 5.0250001 7.5374999 14.7936"
             y="0"
             sodipodi:role="line"
             id="tspan318">d,ON</tspan></text>
<text
           transform="matrix(1,0,0,-1,300.76105,60.99998)"
           style="font-variant:normal;font-weight:normal;font-size:15px;font-family:Times;-inkscape-font-specification:Times-Roman;writing-mode:lr-tb;fill:#000000;fill-opacity:1;fill-rule:nonzero;stroke:none"
           id="text324"><tspan
             x="0"
             y="0"
             id="tspan322">D</tspan></text>
<text
           transform="matrix(1,0,0,-1,311.59115,57.68357)"
           style="font-variant:normal;font-weight:normal;font-size:10.05000019px;font-family:Times;-inkscape-font-specification:Times-Roman;writing-mode:lr-tb;fill:#000000;fill-opacity:1;fill-rule:nonzero;stroke:none"
           id="text328"><tspan
             x="0 2.7939 7.8189001 12.2811 16.743299"
             y="0"
             sodipodi:role="line"
             id="tspan326">ideal</tspan></text>
<text
           transform="matrix(1,0,0,-1,189.74515,147.99997)"
           style="font-variant:normal;font-weight:normal;font-size:15px;font-family:Times;-inkscape-font-specification:Times-Roman;writing-mode:lr-tb;fill:#000000;fill-opacity:1;fill-rule:nonzero;stroke:none"
           id="text332"><tspan
             x="0"
             y="0"
             id="tspan330">R</tspan></text>
<text
           transform="matrix(1,0,0,-1,199.75025,144.68356)"
           style="font-variant:normal;font-weight:normal;font-size:10.05000019px;font-family:Times;-inkscape-font-specification:Times-Roman;writing-mode:lr-tb;fill:#000000;fill-opacity:1;fill-rule:nonzero;stroke:none"
           id="text336"><tspan
             x="0 7.2561002 12.8439 15.3564 22.612499"
             y="0"
             sodipodi:role="line"
             id="tspan334">DS,ON</tspan></text>
<text
           transform="matrix(1,0,0,-1,470.33725,132.99996)"
           style="font-variant:normal;font-weight:normal;font-size:15px;font-family:Times;-inkscape-font-specification:Times-Roman;writing-mode:lr-tb;fill:#000000;fill-opacity:1;fill-rule:nonzero;stroke:none"
           id="text340"><tspan
             x="0 7.5 11.67"
             y="0"
             sodipodi:role="line"
             id="tspan338">1/R</tspan></text>
<text
           transform="matrix(1,0,0,-1,492.01225,129.68355)"
           style="font-variant:normal;font-weight:normal;font-size:10.05000019px;font-family:Times;-inkscape-font-specification:Times-Roman;writing-mode:lr-tb;fill:#000000;fill-opacity:1;fill-rule:nonzero;stroke:none"
           id="text344"><tspan
             x="0 7.2561002 12.8439 15.3564 22.612499"
             y="0"
             sodipodi:role="line"
             id="tspan342">DS,ON</tspan></text>
<text
           transform="matrix(1,0,0,-1,390.23525,66.99995)"
           style="font-variant:normal;font-weight:normal;font-size:15px;font-family:Times;-inkscape-font-specification:Times-Roman;writing-mode:lr-tb;fill:#000000;fill-opacity:1;fill-rule:nonzero;stroke:none"
           id="text348"><tspan
             x="0 5.835 10.005 17.504999 25.004999 31.665001"
             y="0"
             sodipodi:role="line"
             id="tspan346">slope:</tspan></text>
</g><path
         d="m 4420,1000 v 90"
         style="fill:none;stroke:#000000;stroke-width:9.75;stroke-linecap:round;stroke-linejoin:bevel;stroke-miterlimit:6;stroke-dasharray:none;stroke-opacity:1"
         id="path350"
         inkscape:connector-curvature="0" /><path
         d="M 1840,370 H 3520 V 1900 H 1840 Z"
         style="fill:none;stroke:#000000;stroke-width:9.75;stroke-linecap:round;stroke-linejoin:bevel;stroke-miterlimit:6;stroke-dasharray:39, 39;stroke-dashoffset:0;stroke-opacity:1"
         id="path352"
         inkscape:connector-curvature="0" /><path
         d="M 2170,940 V 880"
         style="fill:none;stroke:#000000;stroke-width:9.75;stroke-linecap:round;stroke-linejoin:bevel;stroke-miterlimit:6;stroke-dasharray:none;stroke-opacity:1"
         id="path354"
         inkscape:connector-curvature="0" /><g
         id="g356"
         transform="scale(10)"><text
           transform="matrix(1,0,0,-1,357.686,118)"
           style="font-style:italic;font-variant:normal;font-size:15px;font-family:Times;-inkscape-font-specification:Times-Italic;writing-mode:lr-tb;fill:#2e8b57;fill-opacity:1;fill-rule:nonzero;stroke:none"
           id="text360"><tspan
             x="0"
             y="0"
             id="tspan358">v</tspan></text>
<text
           transform="matrix(1,0,0,-1,364.34616,114.68359)"
           style="font-style:italic;font-variant:normal;font-size:10.05000019px;font-family:Times;-inkscape-font-specification:Times-Italic;writing-mode:lr-tb;fill:#2e8b57;fill-opacity:1;fill-rule:nonzero;stroke:none"
           id="text364"><tspan
             x="0 5.0250001"
             y="0"
             sodipodi:role="line"
             id="tspan362">ds</tspan></text>
<text
           transform="matrix(1,0,0,-1,360.55007,147.99999)"
           style="font-variant:normal;font-weight:normal;font-size:15px;font-family:Times;-inkscape-font-specification:Times-Roman;writing-mode:lr-tb;fill:#2e8b57;fill-opacity:1;fill-rule:nonzero;stroke:none"
           id="text370"><tspan
             x="0"
             y="0"
             id="tspan366">+</tspan><tspan
             x="-0.13437501"
             y="84"
             id="tspan368">-</tspan></text>
</g></g></g></svg>